<svg width="72" height="32" viewBox="0 0 72 32" xmlns="http://www.w3.org/2000/svg">
<path d="M8.89833 19.0858C8.56589 18.8743 8.20796 18.706 7.83315 18.585C7.45787 18.4652 7.0662 18.405 6.67233 18.4064C6.42784 18.4042 6.18401 18.432 5.94627 18.4892C5.74557 18.536 5.55439 18.617 5.38107 18.7287C5.23279 18.8245 5.10796 18.9525 5.01587 19.1032C4.92806 19.2521 4.88293 19.4224 4.88544 19.5953C4.87904 19.7485 4.9184 19.9002 4.99848 20.0308C5.0817 20.1545 5.19358 20.2561 5.32455 20.327C5.48743 20.4163 5.6614 20.4837 5.84193 20.5273C6.06978 20.5846 6.30054 20.6297 6.5332 20.6623L7.08101 20.7363C7.3991 20.7809 7.71313 20.8508 8.0201 20.9454C8.31185 21.0331 8.58777 21.1669 8.83746 21.3417C9.07532 21.5094 9.27286 21.7281 9.4157 21.9819C9.56807 22.2698 9.64299 22.5925 9.63308 22.9182C9.64067 23.2914 9.55234 23.6603 9.37657 23.9895C9.20745 24.2992 8.97124 24.5671 8.68529 24.7734C8.37878 24.9932 8.03581 25.1569 7.67229 25.2568C7.27477 25.3688 6.86355 25.4245 6.4506 25.4223C6.17096 25.4209 5.89186 25.3976 5.61585 25.3526C5.32133 25.3081 5.03064 25.2411 4.74632 25.1523C4.47671 25.0622 4.21496 24.9501 3.96374 24.8169C3.7155 24.6899 3.48341 24.5335 3.27246 24.351L3.96374 23.3275C4.11321 23.4627 4.27811 23.5796 4.45502 23.6759C4.86213 23.8992 5.30257 24.0551 5.75932 24.1376C5.99017 24.1807 6.22447 24.2025 6.45929 24.2029C6.7019 24.206 6.94406 24.1812 7.181 24.1289C7.38767 24.0837 7.58581 24.0058 7.76794 23.8981C7.92536 23.8053 8.06044 23.6789 8.16357 23.5279C8.26283 23.38 8.31442 23.2052 8.31139 23.0271C8.31753 22.7256 8.14767 22.4483 7.87663 22.3172C7.44894 22.1177 6.99001 21.994 6.52016 21.9514L5.90279 21.8643C5.60725 21.8232 5.31615 21.7547 5.03326 21.6596C4.76158 21.57 4.50719 21.4345 4.28112 21.2589C4.05747 21.0846 3.8749 20.863 3.74636 20.61C3.59956 20.3185 3.525 19.9959 3.52897 19.6694C3.52243 19.3015 3.60761 18.9377 3.77679 18.6111C3.93986 18.3037 4.17023 18.0372 4.45068 17.8316C4.7511 17.6132 5.08836 17.451 5.44629 17.3525C5.84221 17.2399 6.25208 17.1842 6.66363 17.187C7.19571 17.1801 7.7255 17.258 8.23314 17.4179C8.69396 17.5675 9.13264 17.7784 9.53743 18.045L8.89833 19.0858ZM13.2242 19.6955C13.5813 19.6922 13.9352 19.7634 14.2633 19.9045C14.5718 20.0383 14.8477 20.2373 15.072 20.4881C15.3035 20.752 15.4821 21.058 15.5981 21.3896C15.7291 21.763 15.7938 22.1566 15.7894 22.5524V22.7788V22.9966H11.7547C11.7838 23.2184 11.8546 23.4327 11.9634 23.628C12.0573 23.7958 12.1828 23.9437 12.333 24.0635C12.4768 24.1759 12.6406 24.2601 12.8156 24.3118C12.9963 24.365 13.1837 24.3914 13.3721 24.3902C13.6514 24.388 13.9281 24.3364 14.1894 24.2377C14.4624 24.135 14.7165 23.9879 14.9416 23.8022L15.5285 24.6515C15.2214 24.9214 14.8616 25.1246 14.472 25.2481C14.0899 25.3631 13.6928 25.4203 13.2938 25.4179C12.9103 25.4221 12.5295 25.3526 12.1721 25.2133C11.8455 25.0824 11.5494 24.8852 11.3026 24.634C11.0513 24.3764 10.8559 24.0695 10.7287 23.7326C10.5883 23.3567 10.519 22.958 10.5244 22.5567C10.5202 22.1602 10.5879 21.7662 10.7243 21.3939C10.8471 21.0576 11.0364 20.7495 11.2808 20.4881C11.5258 20.2337 11.8223 20.0347 12.1504 19.9045C12.491 19.764 12.8558 19.6915 13.2242 19.6911V19.6955ZM13.2025 20.7538C13.0098 20.7501 12.8181 20.7826 12.6373 20.8496C12.4747 20.9092 12.3265 21.0027 12.2025 21.1239C12.0799 21.2502 11.9812 21.3978 11.9113 21.5594C11.8327 21.731 11.7786 21.9128 11.7504 22.0994H14.5677C14.534 21.7313 14.3814 21.3842 14.1329 21.1109C13.8845 20.8662 13.5462 20.7354 13.1982 20.7494L13.2025 20.7538ZM19.5023 19.6955C19.8926 19.6918 20.2798 19.7658 20.6413 19.9133C20.9788 20.0569 21.2769 20.2794 21.5109 20.5621L20.75 21.3722C20.5751 21.1952 20.3724 21.0481 20.1501 20.9367C19.9287 20.8376 19.6882 20.7885 19.4457 20.793C19.2277 20.7907 19.0116 20.8337 18.811 20.9193C18.6197 21.0092 18.4494 21.1383 18.311 21.2981C18.163 21.4569 18.0478 21.6434 17.9719 21.8469C17.809 22.3045 17.809 22.8045 17.9719 23.2622C18.0473 23.4673 18.1625 23.6552 18.311 23.8153C18.4542 23.9682 18.6273 24.0898 18.8197 24.1724C19.0203 24.258 19.2364 24.301 19.4544 24.2987C19.7105 24.2992 19.9633 24.2411 20.1935 24.1289C20.4133 24.0259 20.6157 23.8893 20.7935 23.7239L21.5283 24.5644C21.2842 24.8475 20.9775 25.0697 20.6327 25.2133C20.2728 25.3612 19.8869 25.4353 19.4979 25.431C19.0961 25.4368 18.6971 25.3628 18.324 25.2133C17.6389 24.9388 17.1018 24.3866 16.8458 23.6934C16.5733 22.9602 16.5733 22.1533 16.8458 21.4201C17.1019 20.7344 17.6334 20.1877 18.311 19.9133C18.6879 19.7606 19.0914 19.685 19.4979 19.6911L19.5023 19.6955ZM27.6106 22.9704C27.6207 23.3535 27.5465 23.7342 27.3933 24.0853C27.2631 24.3779 27.0701 24.6381 26.8281 24.8474C26.5922 25.0457 26.3185 25.1938 26.0237 25.2829C25.4174 25.4689 24.7693 25.4689 24.1629 25.2829C23.8669 25.1937 23.5919 25.0456 23.3543 24.8474C23.1107 24.6395 22.9174 24.3789 22.7891 24.0853C22.6387 23.7334 22.566 23.3531 22.5761 22.9704V19.8349H23.7673V22.8833C23.7613 23.1096 23.7951 23.3352 23.8673 23.5497C23.9275 23.7143 24.0241 23.8632 24.1499 23.9852C24.2732 24.1012 24.4222 24.1862 24.5847 24.2334C24.925 24.3356 25.2878 24.3356 25.6281 24.2334C25.7906 24.1862 25.9396 24.1012 26.0629 23.9852C26.1887 23.8632 26.2853 23.7143 26.3455 23.5497C26.4192 23.3355 26.4545 23.1099 26.4498 22.8833V19.8349H27.6411L27.6106 22.9704ZM31.9366 19.6955C32.1011 19.6948 32.2655 19.7079 32.4278 19.7347C32.5765 19.7585 32.7222 19.7979 32.8626 19.8523L32.58 21.0281C32.4425 20.9591 32.2962 20.9093 32.1452 20.8801C31.9923 20.847 31.8365 20.8294 31.68 20.8278C31.5016 20.8256 31.3244 20.8581 31.1583 20.9236C31.0024 20.9856 30.8626 21.0824 30.7496 21.2067C30.6311 21.3411 30.5409 21.4981 30.4844 21.6683C30.4177 21.8675 30.3853 22.0766 30.3888 22.2867V25.2786H29.1801V19.8349H30.354V20.4489C30.5214 20.1987 30.7546 19.9998 31.0279 19.8741C31.3128 19.749 31.6212 19.6866 31.9322 19.6911L31.9366 19.6955ZM35.9147 19.6955C36.2718 19.6922 36.6256 19.7634 36.9538 19.9045C37.2622 20.0383 37.5381 20.2373 37.7624 20.4881C38.0016 20.7502 38.1877 21.0564 38.3102 21.3896C38.4411 21.7631 38.5059 22.1566 38.5015 22.5524V22.7788V22.9966H34.4408C34.4699 23.2184 34.5407 23.4327 34.6495 23.628C34.7434 23.7958 34.8689 23.9437 35.019 24.0635C35.1629 24.1759 35.3266 24.2601 35.5016 24.3118C35.6823 24.365 35.8698 24.3914 36.0581 24.3902C36.3374 24.388 36.6141 24.3364 36.8755 24.2377C37.1484 24.135 37.4026 23.9879 37.6276 23.8022L38.2189 24.6471C37.9119 24.9172 37.5521 25.1204 37.1624 25.2437C36.7803 25.3587 36.3832 25.416 35.9842 25.4136C35.6007 25.4177 35.22 25.3482 34.8625 25.2089C34.5359 25.078 34.2398 24.8808 33.993 24.6297C33.7417 24.372 33.5463 24.0651 33.4191 23.7282C33.2787 23.3524 33.2094 22.9536 33.2148 22.5524C33.2106 22.1558 33.2784 21.7619 33.4148 21.3896C33.5349 21.0539 33.7212 20.7459 33.9626 20.4838C34.2075 20.2293 34.504 20.0304 34.8321 19.9002C35.1744 19.7606 35.5407 19.6895 35.9103 19.6911L35.9147 19.6955ZM35.8929 20.7538C35.7002 20.7501 35.5085 20.7826 35.3277 20.8496C35.1651 20.9092 35.0169 21.0027 34.893 21.1239C34.7703 21.2502 34.6716 21.3978 34.6017 21.5594C34.5232 21.731 34.469 21.9128 34.4408 22.0994H37.2668C37.2331 21.7313 37.0805 21.3842 36.832 21.1109C36.5816 20.8639 36.2396 20.7329 35.8886 20.7494L35.8929 20.7538ZM43.5926 17.1609C43.9364 17.1597 44.2791 17.1977 44.6143 17.2741C44.9325 17.3465 45.2405 17.4577 45.5317 17.6051C45.8101 17.7463 46.0688 17.9235 46.3012 18.1321C46.5279 18.3339 46.7228 18.5688 46.8795 18.8289L45.8099 19.5431C45.5713 19.1908 45.2505 18.9023 44.8752 18.7026C44.4733 18.4916 44.0244 18.3867 43.5709 18.3977C43.187 18.3937 42.806 18.4647 42.4492 18.6068C42.1222 18.743 41.8264 18.9445 41.5797 19.199C41.3247 19.4613 41.1251 19.7724 40.9927 20.1136C40.7089 20.8717 40.7089 21.7071 40.9927 22.4653C41.1251 22.8065 41.3247 23.1175 41.5797 23.3798C41.8264 23.6343 42.1222 23.8358 42.4492 23.9721C42.806 24.1142 43.187 24.1852 43.5709 24.1811C44.4538 24.2005 45.2866 23.7712 45.7838 23.0401L46.8273 23.8066C46.6576 24.0556 46.4558 24.2811 46.2273 24.4773C46.003 24.6809 45.7548 24.8563 45.4882 24.9999C45.2036 25.1429 44.9029 25.2511 44.5926 25.3221C43.6996 25.52 42.7682 25.4503 41.9144 25.1218C40.9184 24.7314 40.1303 23.9421 39.7406 22.9443C39.3329 21.8848 39.3329 20.7114 39.7406 19.652C40.1303 18.6542 40.9184 17.8648 41.9144 17.4745C42.4483 17.2622 43.0182 17.1557 43.5926 17.1609ZM50.5923 19.6781C50.9912 19.6735 51.3871 19.7475 51.7575 19.8958C52.1024 20.0337 52.417 20.2378 52.6836 20.4968C52.9462 20.7548 53.1546 21.0628 53.2966 21.4027C53.5915 22.1316 53.5915 22.947 53.2966 23.6759C53.1546 24.0158 52.9462 24.3238 52.6836 24.5818C52.417 24.8408 52.1024 25.0449 51.7575 25.1828C51.008 25.4745 50.1767 25.4745 49.4272 25.1828C49.0819 25.0457 48.7671 24.8415 48.5011 24.5818C48.2361 24.3298 48.0233 24.0279 47.8751 23.6934C47.5802 22.9644 47.5802 22.1491 47.8751 21.4201C48.0161 21.0808 48.223 20.7729 48.4837 20.5142C48.7497 20.2545 49.0645 20.0503 49.4098 19.9133C49.7866 19.7606 50.1902 19.685 50.5967 19.6911L50.5923 19.6781ZM50.5923 20.7973C50.3616 20.7949 50.1327 20.8378 49.9185 20.9236C49.7163 21.0044 49.5328 21.126 49.3794 21.2807C49.2256 21.4383 49.1044 21.6248 49.0228 21.8294C48.8489 22.2851 48.8489 22.7891 49.0228 23.2448C49.1044 23.4495 49.2256 23.6359 49.3794 23.7935C49.5329 23.9481 49.7164 24.0696 49.9185 24.1506C50.3517 24.3206 50.833 24.3206 51.2662 24.1506C51.6768 23.9894 52.0036 23.6668 52.1705 23.2579C52.3445 22.8022 52.3445 22.2982 52.1705 21.8425C52.0883 21.6372 51.9656 21.4505 51.8097 21.2938C51.6544 21.1393 51.4695 21.0179 51.2662 20.9367C51.0534 20.8514 50.8259 20.8085 50.5967 20.8104L50.5923 20.7973ZM57.0834 19.6781C57.7489 19.6523 58.3856 19.9509 58.792 20.4794V17.0825H59.9789V25.2742H58.792V24.621C58.6025 24.8635 58.3621 25.0612 58.0877 25.2002C57.7751 25.3521 57.4307 25.4268 57.0834 25.4179C56.3583 25.4249 55.6622 25.1337 55.1574 24.6123C54.9053 24.3477 54.7087 24.0353 54.5792 23.6934C54.2997 22.9524 54.2997 22.1349 54.5792 21.3939C54.7104 21.0568 54.9069 20.7489 55.1574 20.4881C55.6622 19.9667 56.3583 19.6755 57.0834 19.6824V19.6781ZM57.2269 20.7973C56.9905 20.7936 56.7562 20.8411 56.5399 20.9367C56.3448 21.0244 56.1701 21.152 56.0269 21.3112C55.8849 21.4729 55.7756 21.6607 55.7052 21.8643C55.5541 22.3016 55.5541 22.777 55.7052 23.2143C55.7756 23.4179 55.8849 23.6057 56.0269 23.7674C56.1701 23.9266 56.3448 24.0542 56.5399 24.1419C56.974 24.3229 57.4623 24.3229 57.8964 24.1419C58.0923 24.0571 58.2684 23.9326 58.4138 23.7761C58.5554 23.6256 58.6674 23.4498 58.7442 23.2579C58.9031 22.81 58.9031 22.3209 58.7442 21.873C58.6695 21.6699 58.5558 21.4835 58.4094 21.3243C58.2638 21.1681 58.0877 21.0436 57.8921 20.9584C57.6831 20.8631 57.4565 20.8126 57.2269 20.8104V20.7973ZM63.9223 19.6781C64.2794 19.6747 64.6333 19.7459 64.9614 19.8871C65.2699 20.0207 65.5458 20.2198 65.77 20.4707C66.0015 20.7345 66.1802 21.0406 66.2961 21.3722C66.4272 21.7456 66.4919 22.1391 66.4874 22.5349V22.7614V22.9792H62.4745C62.5029 23.2011 62.5738 23.4155 62.6832 23.6106C62.777 23.7785 62.9025 23.9264 63.0527 24.0461C63.1965 24.1586 63.3603 24.2428 63.5353 24.2944C63.716 24.3475 63.9035 24.3739 64.0918 24.3727C64.3711 24.3706 64.6478 24.319 64.9092 24.2203C65.1821 24.1176 65.4362 23.9704 65.6613 23.7848L66.2526 24.6297C65.9454 24.8996 65.5857 25.1027 65.1961 25.2263C64.814 25.3414 64.4169 25.3986 64.0179 25.3962C63.6344 25.4003 63.2536 25.3308 62.8962 25.1915C62.5696 25.0606 62.2735 24.8634 62.0267 24.6123C61.7754 24.3546 61.58 24.0477 61.4528 23.7108C61.3124 23.3349 61.2431 22.9362 61.2485 22.5349C61.2443 22.1384 61.3121 21.7444 61.4484 21.3722C61.5713 21.0358 61.7606 20.7278 62.0049 20.4663C62.2499 20.2119 62.5464 20.0129 62.8745 19.8828C63.2085 19.753 63.564 19.688 63.9223 19.6911V19.6781ZM67.0569 25.2612V24.9999H67.1656V24.9432H66.883V24.9999H67.0048V25.2742L67.0569 25.2612ZM67.6004 25.2612V24.9302H67.5134L67.4134 25.1566L67.3134 24.9302H67.2265V25.2612H67.2873V25.0129L67.3787 25.2263H67.4395L67.5308 25.0129V25.2612H67.6004ZM63.9005 20.7363C63.7078 20.7326 63.5161 20.7651 63.3353 20.8322C63.1727 20.8918 63.0245 20.9853 62.9006 21.1065C62.7779 21.2328 62.6792 21.3804 62.6093 21.542C62.5308 21.7136 62.4767 21.8954 62.4484 22.082H65.2657C65.2348 21.7093 65.082 21.3572 64.8309 21.0804C64.5786 20.848 64.2427 20.7285 63.9005 20.7494V20.7363Z" fill="#F79E1B"/>
<path d="M12.7965 14.0558H11.4661V7.27074L9.06183 13.2414H7.66188L5.26632 7.33607V14.0558H3.92725V5.81183H5.9663L8.36186 11.7041L10.7531 5.81183H12.7921L12.7965 14.0558ZM19.7962 14.0558H18.5658V13.3808C18.3693 13.6323 18.1199 13.8375 17.8354 13.9818C17.5117 14.1377 17.1554 14.2139 16.7963 14.2039C16.0434 14.2119 15.3202 13.9095 14.7964 13.3677C14.5364 13.0969 14.3325 12.7772 14.1964 12.427C13.9063 11.6581 13.9063 10.8095 14.1964 10.0405C14.3326 9.69043 14.5365 9.37075 14.7964 9.09983C15.3202 8.558 16.0434 8.25566 16.7963 8.26368C17.1558 8.25414 17.5123 8.33184 17.8354 8.49014C18.1198 8.63647 18.369 8.84302 18.5658 9.09548V8.4161H19.7962V14.0558ZM16.9398 9.42646C16.6945 9.42227 16.4513 9.4713 16.2268 9.57017C16.025 9.66114 15.8444 9.79313 15.6964 9.95776C15.5489 10.126 15.4353 10.3212 15.3616 10.5326C15.2046 10.9868 15.2046 11.4807 15.3616 11.9349C15.436 12.1469 15.5512 12.3422 15.7007 12.5098C15.8486 12.6746 16.0293 12.8066 16.2311 12.8974C16.6818 13.0861 17.1891 13.0861 17.6398 12.8974C17.8421 12.8091 18.0241 12.6802 18.1745 12.5185C18.3261 12.3526 18.4442 12.1589 18.5223 11.948C18.6868 11.4831 18.6868 10.9757 18.5223 10.5108C18.4442 10.3 18.3261 10.1062 18.1745 9.94034C18.0239 9.77883 17.8419 9.6499 17.6398 9.56146C17.4187 9.46716 17.18 9.42113 16.9398 9.42646ZM25.4351 9.82711C25.3322 9.76788 25.2263 9.7141 25.1177 9.66598C24.9763 9.6044 24.8311 9.55203 24.683 9.5092C24.523 9.46077 24.3604 9.42151 24.196 9.39162C24.0239 9.35982 23.8493 9.34378 23.6743 9.34371C23.3994 9.32799 23.1259 9.39308 22.8874 9.53097C22.7143 9.6321 22.6082 9.81803 22.6091 10.0187C22.606 10.1073 22.6319 10.1946 22.683 10.267C22.7348 10.3364 22.8017 10.393 22.8787 10.4325C22.9722 10.4801 23.0716 10.5152 23.1743 10.537C23.2874 10.5631 23.4091 10.5863 23.5395 10.6067L24.1221 10.6938C24.64 10.7475 25.1355 10.9334 25.5612 11.2338C25.9186 11.4995 26.122 11.9249 26.1046 12.3704C26.1072 12.629 26.0475 12.8845 25.9307 13.1151C25.8086 13.3378 25.6377 13.5299 25.4308 13.6769C25.188 13.8514 24.9154 13.9798 24.6264 14.0558C24.272 14.1504 23.9063 14.1959 23.5395 14.1908C23.3946 14.1908 23.2265 14.1821 23.0352 14.1647C22.8286 14.145 22.6237 14.1101 22.4222 14.0601C22.1964 14.0035 21.9755 13.9293 21.7613 13.838C21.5341 13.7411 21.3195 13.6168 21.1222 13.4679L21.6918 12.5446C21.7968 12.626 21.9072 12.7002 22.0222 12.7667C22.1511 12.84 22.2864 12.9013 22.4265 12.9496C22.5894 13.0056 22.7566 13.0479 22.9265 13.0759C23.132 13.1094 23.34 13.1254 23.5482 13.1238C23.8777 13.1425 24.2065 13.0781 24.5047 12.9366C24.7004 12.8462 24.8272 12.6516 24.8308 12.4357C24.8278 12.2714 24.7386 12.1208 24.596 12.0394C24.3683 11.9126 24.1165 11.8354 23.8569 11.813L23.27 11.7346C22.7519 11.6925 22.2569 11.502 21.8439 11.1859C21.52 10.9118 21.339 10.5043 21.3526 10.0797C21.3491 9.81778 21.4056 9.55853 21.5179 9.32194C21.6255 9.09746 21.785 8.9019 21.9831 8.75143C22.2026 8.58851 22.4502 8.46745 22.7135 8.39433C23.029 8.30613 23.3555 8.26361 23.683 8.26803C24.1054 8.26562 24.5263 8.31832 24.9351 8.42481C25.2991 8.51532 25.6468 8.66226 25.9655 8.86031L25.4351 9.82711ZM31.2697 9.53097H29.0958V11.9872C29.0955 12.1533 29.1235 12.3182 29.1784 12.4749C29.2184 12.5961 29.2836 12.7075 29.3697 12.8016C29.4479 12.8854 29.5447 12.9496 29.6523 12.9888C29.7652 13.0298 29.8844 13.0504 30.0045 13.0498C30.2054 13.0482 30.4043 13.0098 30.5914 12.9366C30.7826 12.8652 30.9661 12.7747 31.1392 12.6666L31.6262 13.6508C31.3867 13.8112 31.13 13.9441 30.861 14.0471C30.5537 14.1612 30.2279 14.2174 29.9001 14.2126C29.3523 14.2445 28.8153 14.051 28.4132 13.6769C28.0179 13.2173 27.8237 12.6178 27.8741 12.0133V9.53533H26.7568V8.4161H27.8741V6.70895H29.1089V8.4161H31.2827L31.2697 9.53097ZM35.0521 8.26368C35.4224 8.259 35.7896 8.33167 36.1303 8.47707C36.4505 8.61562 36.7368 8.82216 36.9694 9.08241C37.2103 9.3564 37.3963 9.67429 37.5172 10.0187C37.6522 10.4063 37.7184 10.8146 37.7129 11.2251V11.4602V11.6823H33.5261C33.5566 11.9119 33.6304 12.1336 33.7435 12.3356C33.8423 12.5037 33.9722 12.6515 34.1261 12.7711C34.2752 12.8872 34.4448 12.9744 34.626 13.028C34.8137 13.0838 35.0085 13.1117 35.2043 13.1108C35.5012 13.1115 35.7958 13.0584 36.0738 12.954C36.3552 12.8524 36.6181 12.7052 36.852 12.5185L37.4651 13.3895C37.1464 13.6691 36.7734 13.8797 36.3695 14.0079C35.9733 14.1279 35.5616 14.188 35.1478 14.1864C34.7434 14.2005 34.3403 14.1354 33.9609 13.9948C33.618 13.8605 33.307 13.6558 33.0478 13.3938C32.787 13.1262 32.5842 12.8074 32.4522 12.4575C32.3063 12.0678 32.234 11.6543 32.2392 11.2381C32.234 10.827 32.3033 10.4183 32.4435 10.0318C32.5711 9.68247 32.7678 9.36253 33.0218 9.09112C33.2663 8.83086 33.5625 8.62467 33.8913 8.48578C34.2594 8.33492 34.6544 8.26083 35.0521 8.26803V8.26368ZM35.0304 9.36113C34.8302 9.35744 34.6311 9.39142 34.4434 9.46129C34.2802 9.52597 34.1322 9.62384 34.0087 9.74872C33.8823 9.87474 33.7793 10.0222 33.7043 10.1842C33.6181 10.3649 33.5581 10.557 33.5261 10.7547H36.4477C36.4087 10.3709 36.2435 10.0109 35.9782 9.7313C35.7253 9.4845 35.3833 9.35094 35.0304 9.36113ZM41.9866 8.26368C42.157 8.2626 42.3271 8.27571 42.4953 8.30287C42.644 8.32877 42.7896 8.36962 42.9301 8.42481L42.6344 9.6442C42.4969 9.57431 42.3507 9.52305 42.1997 9.49178C42.0409 9.4583 41.8793 9.44079 41.7171 9.43952C41.5326 9.43777 41.3495 9.47179 41.178 9.53968C41.012 9.60323 40.8632 9.70462 40.7432 9.83582C40.6192 9.97509 40.5245 10.138 40.4649 10.3149C40.3956 10.521 40.3618 10.7375 40.365 10.9551V14.0601H39.1346V8.39868H40.3519V9.03451C40.5242 8.78151 40.7615 8.57987 41.0388 8.45094C41.3338 8.32379 41.6525 8.26142 41.9736 8.26803L41.9866 8.26368ZM46.1908 8.26368C46.5961 8.25953 46.9982 8.33652 47.3734 8.49014C47.7308 8.63683 48.0471 8.86852 48.2951 9.16516L47.5082 10.0057C47.3257 9.82788 47.1158 9.68081 46.8864 9.57017C46.6568 9.46703 46.4076 9.41503 46.156 9.41775C45.9306 9.4156 45.7071 9.46008 45.4995 9.54839C45.2989 9.63347 45.1183 9.75955 44.9691 9.91857C44.8169 10.084 44.6987 10.2779 44.6213 10.4891C44.4518 10.9635 44.4518 11.4822 44.6213 11.9567C44.6988 12.1679 44.817 12.3617 44.9691 12.5272C45.1184 12.6861 45.299 12.8122 45.4995 12.8974C45.7071 12.9857 45.9306 13.0302 46.156 13.028C46.4174 13.0305 46.676 12.9739 46.9125 12.8625C47.1412 12.7508 47.351 12.6038 47.5342 12.427L48.2907 13.2763C48.0376 13.571 47.7189 13.8022 47.3603 13.9513C46.9867 14.105 46.586 14.182 46.1821 14.1777C45.7654 14.1836 45.3516 14.1066 44.9648 13.9513C44.257 13.6687 43.7002 13.1015 43.43 12.3878C43.1475 11.628 43.1475 10.7916 43.43 10.0318C43.7002 9.31817 44.257 8.75093 44.9648 8.46836C45.3521 8.32248 45.7642 8.25441 46.1778 8.26803L46.1908 8.26368ZM54.8296 14.0558H53.5992V13.3808C53.4027 13.6323 53.1533 13.8375 52.8688 13.9818C52.5451 14.1377 52.1888 14.2139 51.8297 14.2039C51.0768 14.2119 50.3536 13.9095 49.8298 13.3677C49.5698 13.0969 49.3659 12.7772 49.2298 12.427C48.9397 11.6581 48.9397 10.8095 49.2298 10.0405C49.366 9.69043 49.5699 9.37075 49.8298 9.09983C50.3536 8.558 51.0768 8.25566 51.8297 8.26368C52.1892 8.25414 52.5457 8.33184 52.8688 8.49014C53.1532 8.63647 53.4025 8.84302 53.5992 9.09548V8.4161H54.8296V14.0558ZM51.9775 9.42646C51.7323 9.42227 51.4891 9.4713 51.2645 9.57017C51.0628 9.66114 50.8822 9.79313 50.7341 9.95776C50.5867 10.126 50.473 10.3212 50.3993 10.5326C50.2423 10.9868 50.2423 11.4807 50.3993 11.9349C50.473 12.1463 50.5867 12.3415 50.7341 12.5098C50.8821 12.6745 51.0627 12.8065 51.2645 12.8974C51.7153 13.0856 52.2224 13.0856 52.6732 12.8974C52.8754 12.809 53.0574 12.6801 53.2079 12.5185C53.3601 12.353 53.4783 12.1592 53.5557 11.948C53.7209 11.4832 53.7209 10.9756 53.5557 10.5108C53.4783 10.2997 53.3601 10.1058 53.2079 9.94034C53.0573 9.77883 52.8754 9.6499 52.6732 9.56146C52.4547 9.46849 52.2192 9.4225 51.9819 9.42646H51.9775ZM59.4946 8.26803C59.665 8.26696 59.8351 8.28007 60.0033 8.30723C60.152 8.33313 60.2976 8.37398 60.4381 8.42917L60.1424 9.64856C60.0049 9.57867 59.8587 9.52741 59.7077 9.49613C59.5489 9.46271 59.3873 9.44521 59.2251 9.44388C59.0406 9.44202 58.8575 9.47603 58.686 9.54404C58.5201 9.60758 58.3712 9.70898 58.2512 9.84018C58.1272 9.97945 58.0325 10.1424 57.973 10.3192C57.9036 10.5254 57.8698 10.7419 57.873 10.9594V14.0645H56.6426V8.40304H57.873V9.03886C58.0457 8.78351 58.2847 8.58023 58.5642 8.45094C58.8592 8.32392 59.1779 8.26155 59.499 8.26803H59.4946ZM63.5293 8.26803C63.8888 8.2585 64.2453 8.33619 64.5684 8.49449C64.8527 8.64094 65.1019 8.84747 65.2988 9.09983V5.57666H66.5292V14.0558H65.2988V13.3808C65.1022 13.6323 64.8529 13.8375 64.5684 13.9818C64.2446 14.1377 63.8884 14.2139 63.5293 14.2039C62.7763 14.2119 62.0532 13.9095 61.5293 13.3677C61.2648 13.0979 61.0564 12.7782 60.9163 12.427C60.6262 11.6581 60.6262 10.8095 60.9163 10.0405C61.0525 9.69043 61.2564 9.37075 61.5163 9.09983C62.0401 8.558 62.7633 8.25566 63.5162 8.26368L63.5293 8.26803ZM67.9639 13.5375C68.013 13.5364 68.0618 13.5453 68.1074 13.5637C68.1511 13.582 68.191 13.6086 68.2247 13.6421C68.2578 13.6744 68.2844 13.7129 68.303 13.7553C68.3412 13.8443 68.3412 13.945 68.303 14.034C68.2843 14.0764 68.2577 14.1148 68.2247 14.1472C68.1909 14.1805 68.151 14.2071 68.1074 14.2256C68.0622 14.2458 68.0133 14.2562 67.9639 14.2561C67.8175 14.2582 67.684 14.1725 67.6248 14.0384C67.5866 13.9494 67.5866 13.8486 67.6248 13.7597C67.6619 13.6723 67.7323 13.6033 67.8204 13.568C67.8671 13.5478 67.9174 13.5374 67.9682 13.5375H67.9639ZM67.9639 14.1777C68.0012 14.1782 68.0383 14.1708 68.0726 14.156C68.1051 14.1412 68.1346 14.1205 68.1595 14.095C68.2672 13.9849 68.2672 13.8088 68.1595 13.6987C68.1347 13.673 68.1052 13.6523 68.0726 13.6377C68.0367 13.6303 67.9997 13.6303 67.9639 13.6377C67.928 13.6307 67.8911 13.6307 67.8552 13.6377C67.7769 13.6758 67.7208 13.7483 67.7038 13.8338C67.6867 13.9193 67.7105 14.0079 67.7682 14.0732C67.7931 14.0989 67.8226 14.1195 67.8552 14.1342C67.8896 14.1553 67.9282 14.1687 67.9682 14.1734L67.9639 14.1777ZM67.9639 13.7422C67.9998 13.7402 68.0352 13.751 68.0639 13.7727C68.0872 13.7919 68.1 13.8209 68.0986 13.8511C68.1002 13.877 68.0907 13.9023 68.0726 13.9208C68.0511 13.9409 68.0236 13.9532 67.9943 13.9556L68.103 14.0819H68.016L67.916 13.9556H67.8856V14.0819H67.8161V13.7466L67.9639 13.7422ZM67.8813 13.8032V13.8903H67.9639C67.9781 13.8944 67.9932 13.8944 68.0074 13.8903C68.0128 13.8793 68.0128 13.8664 68.0074 13.8555C68.0136 13.8447 68.0136 13.8314 68.0074 13.8206C67.9931 13.8167 67.9781 13.8167 67.9639 13.8206L67.8813 13.8032ZM63.6553 9.44823C63.4101 9.44405 63.1669 9.49307 62.9423 9.59194C62.7406 9.68291 62.56 9.81491 62.4119 9.97954C62.2645 10.1478 62.1508 10.343 62.0771 10.5544C61.9201 11.0086 61.9201 11.5025 62.0771 11.9567C62.1508 12.1681 62.2645 12.3633 62.4119 12.5316C62.5599 12.6963 62.7406 12.8283 62.9423 12.9191C63.3931 13.1074 63.9002 13.1074 64.351 12.9191C64.5532 12.8308 64.7352 12.7019 64.8857 12.5403C65.0528 12.3673 65.1817 12.161 65.264 11.9349C65.4288 11.4701 65.4288 10.9626 65.264 10.4978C65.1865 10.2866 65.0683 10.0928 64.9162 9.92728C64.7656 9.76577 64.5836 9.63683 64.3814 9.54839C64.1593 9.45869 63.9207 9.41713 63.6814 9.42646L63.6553 9.44823Z" fill="#EB001B"/>
</svg>
