<svg width="72" height="32" viewBox="0 0 72 32" xmlns="http://www.w3.org/2000/svg">
<path fill-rule="evenodd" clip-rule="evenodd" d="M30.4632 16.7686L27.6794 24.268L27.3825 22.7443C26.6893 20.8758 25.1883 18.9156 23.4403 18.1212L25.987 27.751L28.9975 27.7496L33.4745 16.7686H30.4632Z" fill="#1B548E"/>
<path fill-rule="evenodd" clip-rule="evenodd" d="M32.8494 27.7623L34.629 16.7583H37.473L35.6921 27.7623H32.8494Z" fill="#1B548E"/>
<path fill-rule="evenodd" clip-rule="evenodd" d="M46.0089 17.0294C45.4469 16.8076 44.5602 16.5664 43.4601 16.5664C40.6466 16.5664 38.6701 18.0603 38.6528 20.1972C38.6347 21.7799 40.0662 22.6627 41.1422 23.1885C42.2528 23.7266 42.6237 24.072 42.6202 24.5534C42.6094 25.2906 41.7317 25.6267 40.916 25.6267C39.7792 25.6267 39.1733 25.4608 38.2413 25.0515L37.8719 24.876L37.4739 27.3387C38.1393 27.6452 39.3677 27.9109 40.6445 27.9246C43.6302 27.9246 45.5728 26.4476 45.5959 24.1669C45.6079 22.9115 44.848 21.9612 43.2056 21.1767C42.2142 20.6666 41.6011 20.3285 41.6101 19.8115C41.611 19.3549 42.1245 18.8656 43.2397 18.8656C44.1712 18.8501 44.841 19.0635 45.3682 19.2886L45.6219 19.4147L46.0089 17.0294ZM53.3032 16.7696H51.1061C50.4248 16.7696 49.9142 16.9635 49.6135 17.6828L45.3916 27.7655H48.3787C48.3787 27.7655 48.8671 26.4085 48.9776 26.111C49.3034 26.111 52.2046 26.1177 52.6188 26.1177C52.7067 26.5014 52.9651 27.7655 52.9651 27.7655H55.6062L53.3032 16.7696ZM49.7959 23.8603C50.032 23.2288 50.9289 20.7846 50.9289 20.7846C50.9114 20.8144 51.1622 20.1481 51.3071 19.7362L51.4965 20.6847C51.4965 20.6847 52.043 23.3106 52.157 23.8603H49.7959Z" fill="#1B548E"/>
<path fill-rule="evenodd" clip-rule="evenodd" d="M25.097 16.7632H20.51L20.4832 16.9527C24.0495 17.8639 26.4028 20.1014 27.3824 22.7474L26.3855 17.6901C26.2143 16.9944 25.7151 16.7877 25.097 16.7632Z" fill="#E89F3E"/>
<path fill-rule="evenodd" clip-rule="evenodd" d="M11.9059 14.1042H10.0921L8 4.683L10.0044 4.34814L11.436 11.7212L15.082 4.44553H17.0074L11.9059 14.1042Z" fill="#1B548E"/>
<path fill-rule="evenodd" clip-rule="evenodd" d="M21.3377 11.0242H17.0127C16.8946 12.3342 17.504 12.9058 18.5365 12.9058C19.4016 12.9058 20.1626 12.585 20.9815 12.0694L20.9751 13.3794C20.1719 13.8812 19.2437 14.2018 18.1554 14.2018C16.2721 14.2018 15.0283 13.1286 15.4021 10.7033C15.739 8.51539 17.2544 7.19166 19.0123 7.19166C21.0353 7.19166 21.708 8.7107 21.414 10.6201C21.3927 10.7594 21.3526 10.9266 21.3377 11.0242ZM18.7925 8.34839C18.1227 8.34839 17.4969 8.8777 17.2018 9.97896H19.8803C19.9297 8.93347 19.6015 8.34839 18.7925 8.34839ZM24.1568 10.202L23.5621 14.0625H21.8881L22.925 7.33063H24.3482L24.3491 8.68268C24.9158 7.90228 25.6865 7.24742 26.7412 7.19166L26.7509 8.84997C25.6938 8.91974 24.7428 9.47709 24.1568 10.202ZM26.7289 14.0625L27.7662 7.33063H29.4402L28.4033 14.0625H26.7289ZM28.7911 6.20193C28.2332 6.20193 27.8468 5.81158 27.9327 5.25424C28.0207 4.68288 28.5295 4.27853 29.0874 4.27853C29.6316 4.27853 30.0156 4.68288 29.9277 5.25424C29.8417 5.81158 29.3353 6.20193 28.7911 6.20193ZM34.0768 5.49102C33.5046 5.49102 33.1591 5.74181 33.0668 6.34148L32.9142 7.33063H34.1978L34.1966 8.6964H32.7038L31.877 14.0625H30.217L31.0438 8.6964H30.0671L30.2775 7.33063H31.2539L31.4322 6.1739C31.6619 4.68288 32.6965 4.12525 34.0777 4.12525C34.3708 4.12525 34.5897 4.15328 34.7531 4.18101L34.7656 5.54678C34.6023 5.51905 34.3556 5.49102 34.0768 5.49102ZM34.0949 14.0625L35.1321 7.33063H36.8061L35.7692 14.0625H34.0949ZM36.157 6.20193C35.5991 6.20193 35.2128 5.81158 35.2987 5.25424C35.3867 4.68288 35.8955 4.27853 36.4534 4.27853C36.9976 4.27853 37.3819 4.68288 37.2939 5.25424C37.208 5.81158 36.7012 6.20193 36.157 6.20193ZM43.2971 11.0242H38.972C38.854 12.3342 39.4633 12.9058 40.4958 12.9058C41.3609 12.9058 42.1217 12.585 42.9408 12.0694L42.9341 13.3794C42.1313 13.8812 41.2028 14.2018 40.1145 14.2018C38.2312 14.2018 36.9876 13.1286 37.3611 10.7033C37.6984 8.51539 39.2137 7.19166 40.9716 7.19166C42.9946 7.19166 43.6674 8.7107 43.3734 10.6201C43.3517 10.7594 43.312 10.9266 43.2971 11.0242ZM40.7516 8.34839C40.0817 8.34839 39.456 8.8777 39.1611 9.97896H41.8396C41.889 8.93347 41.5605 8.34839 40.7516 8.34839ZM48.2561 14.0625L48.2602 13.1286C47.6976 13.7002 46.9649 14.2018 46.03 14.2018C44.6207 14.2018 43.6522 13.1566 44.002 10.8846C44.3884 8.37612 45.9414 7.26114 47.5038 7.26114C48.1459 7.26114 48.6451 7.37267 49.0279 7.51193L49.5282 4.26451L51.2432 4L49.6931 14.0625H48.2561ZM48.8154 8.89172C48.427 8.6964 48.121 8.59889 47.5491 8.59889C46.67 8.59889 45.9189 9.3098 45.6912 10.7874C45.4896 12.0971 45.9531 12.7105 46.6925 12.7105C47.3062 12.7105 47.8364 12.3485 48.3686 11.7908L48.8154 8.89172ZM54.8215 14.1259C54.0289 14.1259 53.3831 13.9989 52.7816 13.7881L53.8828 6.64103L55.1816 6.44017L54.7052 9.53344C55.0849 9.19564 55.6124 8.85785 56.2571 8.85785C57.3349 8.85785 58.0568 9.66044 57.7932 11.3704C57.5038 13.2494 56.3436 14.1259 54.8215 14.1259ZM55.757 9.97662C55.3342 9.97662 54.9098 10.2619 54.5343 10.6423L54.178 12.954C54.4279 13.0489 54.6009 13.0912 54.9601 13.0912C55.7632 13.0912 56.3243 12.6057 56.5032 11.4443C56.6546 10.4624 56.3278 9.97662 55.757 9.97662ZM60.7809 14.337C60.133 15.5933 59.4918 15.9839 58.5089 15.9839C58.2868 15.9839 58.1635 15.9626 58.0521 15.9311L58.0439 14.8859C58.2067 14.9282 58.3812 14.9597 58.6243 14.9597C58.9943 14.9597 59.3161 14.791 59.5318 14.4214L59.6998 14.0836L58.6246 9.05842L59.9719 8.88967L60.5959 12.521L62.2854 8.96354H63.543L60.7809 14.337Z" fill="#1B548E"/>
</svg>
